<?xml version="1.0" encoding="utf-8"?>
<!-- Generator: Adobe Illustrator 14.0.0, SVG Export Plug-In . SVG Version: 6.00 Build 43363)  -->
<!DOCTYPE svg PUBLIC "-//W3C//DTD SVG 1.1//EN" "http://www.w3.org/Graphics/SVG/1.1/DTD/svg11.dtd">
<svg version="1.1" id="Layer_1" xmlns="http://www.w3.org/2000/svg" xmlns:xlink="http://www.w3.org/1999/xlink" x="0px" y="0px"
	 width="156.848px" height="190.145px" viewBox="0 0 156.848 190.145" enable-background="new 0 0 156.848 190.145"
	 xml:space="preserve">
<g>
	<g>
		<defs>
			<path id="SVGID_1_" d="M110.534,35.344c1.262-0.255,1.967-0.923,2.881-1.439c0.24,0,0.48,0,0.719,0
				c0.121-0.24,0.24-0.48,0.361-0.72c0.24,0,0.48,0,0.719,0c0.121-0.24,0.24-0.48,0.361-0.721c0.24,0,0.48,0,0.719,0
				c0-0.119,0-0.239,0-0.359c0.24,0,0.48,0,0.721,0c0.119-0.24,0.24-0.48,0.359-0.72c0.721-0.24,1.441-0.48,2.16-0.721
				c0-0.12,0-0.24,0-0.359c0.24,0,0.48,0,0.721,0c0-0.12,0-0.24,0-0.36c0.959,0,1.92,0,2.879,0c0,0.12,0,0.24,0,0.36
				c0.24,0,0.48,0,0.721,0c0,0.119,0,0.239,0,0.359c0.24,0,0.48,0,0.721,0c0.119,0.24,0.24,0.48,0.359,0.721
				c1.293,1.288,1.461,1.344,1.439,3.959c-0.119,0-0.24,0-0.359,0c0,0.48,0,0.96,0,1.44c-0.119,0-0.24,0-0.359,0
				c0,0.24,0,0.48,0,0.72c-0.121,0-0.24,0-0.361,0c-0.414,0.55-0.506,0.627-0.719,1.44c-0.809,0.198-0.908,0.303-1.441,0.72
				c0,0.12,0,0.24,0,0.36c-0.238,0-0.479,0-0.719,0c-0.121,0.24-0.24,0.479-0.361,0.72c-0.479,0.12-0.959,0.24-1.439,0.36
				c0,0.12,0,0.24,0,0.359c-0.24,0-0.48,0-0.719,0c0,0.12,0,0.24,0,0.36c-0.721,0.24-1.441,0.48-2.16,0.72c0,0.12,0,0.24,0,0.36
				c-0.361,0-0.721,0-1.08,0c0,0.12,0,0.24,0,0.36c-0.24,0-0.48,0-0.721,0c0,0.119,0,0.239,0,0.359c-0.6,0.12-1.199,0.24-1.801,0.36
				c0,0.12,0,0.24,0,0.359c-1.078,0.36-2.16,0.721-3.238,1.08c0.119,1.8,0.238,3.601,0.359,5.4c2.383-0.019,2.949,0.682,4.68,1.08
				c0.053,3.375-1.215,5.539-2.16,7.92c-0.24,1.08-0.48,2.16-0.721,3.24c-0.119,0-0.238,0-0.359,0c0,0.479,0,0.96,0,1.439
				c-0.119,0-0.24,0-0.359,0c0,0.601,0,1.2,0,1.801c-0.121,0-0.24,0-0.359,0c0,0.84,0,1.68,0,2.52c-0.121,0-0.24,0-0.361,0
				c0,3.12,0,6.24,0,9.36c-0.119,0-0.24,0-0.359,0c0,0.72,0,1.439,0,2.159c-0.121,0-0.24,0-0.359,0c0,0.12,0,0.24,0,0.36
				c-0.721,0-1.441,0-2.16,0c0-0.12,0-0.24,0-0.36c-0.361,0-0.721,0-1.08,0c-0.305,0.409,0.045,0.053-0.361,0.36
				c-0.359,1.68-0.719,3.36-1.08,5.04c-0.119,0-0.24,0-0.359,0c-0.119,1.08-0.24,2.16-0.359,3.24c-0.121,0-0.24,0-0.361,0
				c-0.521,1.797,0.246,4.018,0.361,5.399c3.195,0.269,6.691,1.264,9.359,2.161c0.48,0,0.961,0,1.439,0c0,0.119,0,0.239,0,0.359
				c0.48,0,0.961,0,1.441,0c0,0.12,0,0.24,0,0.36c0.359,0,0.719,0,1.08,0c0,0.12,0,0.24,0,0.36c0.479,0,0.959,0,1.439,0
				c0,0.119,0,0.239,0,0.359c0.359,0,0.719,0,1.08,0c0,0.12,0,0.24,0,0.36c0.359,0,0.719,0,1.08,0c0,0.12,0,0.24,0,0.359
				c0.359,0,0.719,0,1.08,0c0,0.12,0,0.24,0,0.36c0.84,0.12,1.68,0.24,2.52,0.36c0,0.119,0,0.239,0,0.359c0.24,0,0.48,0,0.721,0
				c0,0.12,0,0.24,0,0.36c0.359,0,0.719,0,1.08,0c0,0.12,0,0.24,0,0.359c1.078,0.24,2.16,0.48,3.238,0.721c0,0.12,0,0.24,0,0.359
				c0.24,0,0.48,0,0.721,0c0,0.12,0,0.24,0,0.36c0.359,0,0.721,0,1.08,0c0,0.12,0,0.24,0,0.36c0.24,0,0.48,0,0.721,0
				c0,0.12,0,0.24,0,0.359c0.359,0,0.719,0,1.08,0c0,0.12,0,0.24,0,0.36c0.479,0.12,0.959,0.24,1.439,0.36c0,0.12,0,0.239,0,0.359
				c0.359,0,0.721,0,1.08,0c0,0.12,0,0.24,0,0.36c0.721,0.24,1.439,0.479,2.16,0.72c0,0.12,0,0.24,0,0.36
				c0.48,0.12,0.959,0.24,1.439,0.36c0.121,0.239,0.24,0.479,0.359,0.72c0.24,0,0.48,0,0.721,0c0.119,0.24,0.24,0.479,0.359,0.72
				c0.121,0,0.24,0,0.361,0c0.119,0.479,0.24,0.96,0.359,1.44c0.119,0,0.24,0,0.359,0c0.24,0.72,0.48,1.439,0.721,2.159
				c0.119,0,0.24,0,0.359,0c0,0.36,0,0.721,0,1.08c0.121,0,0.24,0,0.361,0c0,0.24,0,0.48,0,0.721c0.119,0,0.24,0,0.359,0
				c0,0.359,0,0.72,0,1.08c0.119,0,0.24,0,0.359,0c0,0.239,0,0.479,0,0.72c0.121,0,0.24,0,0.361,0c0.119,0.72,0.238,1.44,0.359,2.16
				c0.119,0,0.24,0,0.359,0c0,0.239,0,0.479,0,0.72c0.121,0,0.24,0,0.361,0c0,0.36,0,0.72,0,1.08c0.119,0,0.238,0,0.359,0
				c0,0.359,0,0.72,0,1.08c0.119,0,0.24,0,0.359,0c0,0.359,0,0.72,0,1.08c0.121,0,0.24,0,0.361,0c0,0.359,0,0.72,0,1.08
				c0.119,0,0.238,0,0.359,0c0,0.479,0,0.96,0,1.439c0.119,0,0.24,0,0.359,0c0,0.36,0,0.721,0,1.08c0.121,0,0.24,0,0.359,0
				c0,0.36,0,0.721,0,1.08c0.121,0,0.24,0,0.361,0c0.119,0.84,0.24,1.681,0.359,2.52c0.121,0,0.24,0,0.359,0
				c0.24,1.44,0.48,2.881,0.721,4.32c0.121,0,0.24,0,0.359,0c0,0.36,0,0.721,0,1.08c0.121,0,0.24,0,0.361,0c0,0.6,0,1.2,0,1.8
				c0.119,0,0.24,0,0.359,0c0,0.48,0,0.96,0,1.44c0.119,0,0.24,0,0.359,0c0,0.479,0,0.96,0,1.439c0.121,0,0.24,0,0.361,0
				c0,0.601,0,1.2,0,1.801c0.119,0,0.24,0,0.359,0c0,0.6,0,1.2,0,1.8c0.119,0,0.24,0,0.359,0c0.48,3.479,0.961,6.96,1.441,10.439
				c0.119,0,0.24,0,0.359,0c0,0.96,0,1.921,0,2.88c0.119,0,0.24,0,0.359,0c0,1.08,0,2.16,0,3.24c0.121,0,0.24,0,0.361,0
				c0,1.92,0,3.841,0,5.76c0.119,0,0.238,0,0.359,0c0.479,1.721-0.023,6.355-0.359,7.561c0,1.56,0,3.12,0,4.68
				c-0.121,0-0.24,0-0.361,0c0,1.08,0,2.16,0,3.24c-0.119,0-0.24,0-0.359,0c0,0.84,0,1.68,0,2.52c-0.119,0-0.24,0-0.359,0
				c0,0.721,0,1.44,0,2.16c-0.121,0-0.24,0-0.361,0c0,0.601,0,1.2,0,1.801c-0.119,0-0.24,0-0.359,0
				c-0.408,1.321,0.104,2.348-0.721,3.239c-0.955,0.831-8.086,0.36-10.08,0.36c-9.479,0-18.961,0-28.439,0
				c-37.436,0-74.884,0-112.32,0c-0.081-2.507-0.84-5.126-1.44-7.2c0-0.96,0-1.92,0-2.88c-0.12,0-0.24,0-0.36,0
				c0-0.96,0-1.92,0-2.88c-0.12,0-0.24,0-0.36,0c0-0.72,0-1.44,0-2.16c-0.12,0-0.24,0-0.36,0c0-1.56,0-3.12,0-4.68
				c0-4.138-0.175-8.738,0.72-11.88c0.36-3.6,0.72-7.2,1.08-10.801c0.501-1.693,0.933-4.119,1.44-5.76c0-0.6,0-1.2,0-1.8
				c0.12,0,0.24,0,0.36,0c0.12-1.08,0.24-2.16,0.36-3.24c0.12,0,0.24,0,0.36,0c0-0.479,0-0.96,0-1.439c0.12,0,0.24,0,0.36,0
				c0-0.48,0-0.96,0-1.44c0.12,0,0.24,0,0.36,0c0-0.479,0-0.96,0-1.439c0.12,0,0.24,0,0.36,0c0-0.48,0-0.96,0-1.44
				c0.12,0,0.24,0,0.36,0c0-0.36,0-0.72,0-1.08c0.12,0,0.24,0,0.36,0c0.12-0.96,0.24-1.92,0.36-2.88c0.12,0,0.24,0,0.36,0
				c0-0.36,0-0.72,0-1.08c0.12,0,0.24,0,0.36,0c0-0.359,0-0.72,0-1.08c0.12,0,0.24,0,0.36,0c0-0.479,0-0.96,0-1.439
				c0.12,0,0.24,0,0.36,0c0.12-0.721,0.24-1.44,0.36-2.16c0.12,0,0.24,0,0.36,0c0.24-1.08,0.48-2.16,0.72-3.24c0.12,0,0.24,0,0.36,0
				c0-0.36,0-0.72,0-1.08c0.12,0,0.24,0,0.36,0c0-0.24,0-0.479,0-0.72c0.12,0,0.24,0,0.36,0c0.12-0.72,0.24-1.44,0.36-2.16
				c0.12,0,0.24,0,0.36,0c0.12-0.6,0.24-1.2,0.36-1.8c0.12,0,0.24,0,0.36,0c0.12-0.48,0.24-0.96,0.36-1.44c0.12,0,0.24,0,0.36,0
				c0-0.24,0-0.479,0-0.72c0.6-0.96,1.2-1.92,1.8-2.88c0.24,0,0.48,0,0.72,0c0.12-0.24,0.24-0.48,0.36-0.72
				c0.48-0.12,0.96-0.24,1.44-0.36c0-0.12,0-0.24,0-0.36c0.72-0.24,1.44-0.479,2.16-0.72c0-0.12,0-0.24,0-0.36c0.36,0,0.72,0,1.08,0
				c0-0.12,0-0.239,0-0.359c0.48-0.12,0.96-0.24,1.44-0.36c0-0.12,0-0.24,0-0.36c5.759-1.919,11.521-3.84,17.28-5.76
				c0.48,0,0.96,0,1.44,0c0-0.12,0-0.24,0-0.359c0.48,0,0.96,0,1.44,0c0-0.12,0-0.24,0-0.36c0.48,0,0.96,0,1.44,0
				c0-0.12,0-0.24,0-0.36c0.48,0,0.96,0,1.44,0c0-0.12,0-0.24,0-0.359c0.479,0,0.96,0,1.44,0c0-0.12,0-0.24,0-0.36
				c0.6,0,1.2,0,1.8,0c0-0.12,0-0.24,0-0.36c1.353-0.421,1.973,0.174,2.88-0.72c0.12,0,0.24,0,0.36,0c0-0.48,0-0.96,0-1.44
				c-0.48,0-0.96,0-1.44,0c0,0.12,0,0.24,0,0.36c-1.68,0-3.36,0-5.04,0c0,0.12,0,0.24,0,0.36c-1.92,0-3.84,0-5.76,0
				c0,0-0.023-0.301-0.72-0.36c-2.28,0-4.561,0-6.84,0c-1.08-0.36-2.16-0.72-3.24-1.08c0-0.12,0-0.24,0-0.36c-0.12,0-0.24,0-0.36,0
				c0,0.12,0,0.24,0,0.36c-0.36,0-0.72,0-1.08,0c0,0.12,0,0.24,0,0.36c-1.116,0.325-4.359-0.056-5.04-0.36
				c-0.96-0.72-1.92-1.44-2.88-2.16c0-0.24,0-0.479,0-0.72c-0.24-0.12-0.48-0.24-0.72-0.36c-0.421-0.649,0-0.81-0.72-1.439
				c-0.12-1.561-0.24-3.12-0.36-4.681c0.12,0,0.24,0,0.36,0c0-0.479,0-0.96,0-1.439c-5.535-0.119-10.172-3.994-11.52-8.28
				c0-0.72,0-1.44,0-2.16c0-1.08,0-2.16,0-3.24c0.788-2.377,3.253-6.241,5.76-6.84c0-0.239,0-0.479,0-0.72
				c-4.809-2.157-7.161-9.489-3.6-14.76c0.36-0.24,0.72-0.48,1.08-0.721c2.545-2.582,4.5-3.334,9.72-3.239
				c-0.12-1.32-0.24-2.641-0.36-3.96c0.12,0,0.24,0,0.36,0c0-0.36,0-0.721,0-1.08c0.12,0,0.24,0,0.36,0c0-0.24,0-0.48,0-0.721
				c0.12,0,0.24,0,0.36,0c0-0.239,0-0.479,0-0.72c0.24-0.12,0.48-0.24,0.72-0.36c0.12-0.359,0.24-0.72,0.36-1.079
				c0.24,0,0.48,0,0.72,0c0.12-0.24,0.24-0.48,0.36-0.721c0.48-0.119,0.96-0.239,1.44-0.359c0-0.12,0-0.24,0-0.36
				c0.24,0,0.48,0,0.72,0c0-0.12,0-0.24,0-0.359c0.6,0,1.2,0,1.8,0c0-0.12,0-0.24,0-0.36c1.719-0.475,4.847,1.257,5.4,1.08
				c0.12-0.24,0.24-0.48,0.36-0.72c0.881-0.746,2.477-2.158,4.68-1.44c3.24,1.8,6.48,3.6,9.72,5.399
				c0.033-3.039,0.646-7.004,1.44-9.359c0-0.48,0-0.96,0-1.44c0.12,0,0.24,0,0.36,0c0.12-0.84,0.24-1.68,0.36-2.52
				c0.12,0,0.24,0,0.36,0c0.12-0.601,0.24-1.2,0.36-1.8c0.12,0,0.24,0,0.36,0c0-0.24,0-0.48,0-0.721c0.12,0,0.24,0,0.36,0
				c0-0.359,0-0.72,0-1.08c0.12,0,0.24,0,0.36,0c0-0.239,0-0.479,0-0.72c0.12,0,0.24,0,0.36,0c0-0.24,0-0.479,0-0.72
				c0.24-0.12,0.48-0.24,0.72-0.36c0.24-0.72,0.48-1.44,0.72-2.16c0.24-0.119,0.48-0.239,0.72-0.359c0-0.24,0-0.48,0-0.72
				c0.36-0.24,0.72-0.48,1.08-0.721c0-0.24,0-0.479,0-0.72c0.48-0.36,0.96-0.72,1.44-1.08c0-0.24,0-0.48,0-0.72
				c0.72-0.601,1.44-1.2,2.16-1.801c0.12-0.239,0.24-0.479,0.36-0.72c0.24,0,0.48,0,0.72,0c0.36-0.479,0.72-0.96,1.08-1.439
				c0.24,0,0.48,0,0.72,0c0.24-0.36,0.48-0.721,0.72-1.08c0.48-0.12,0.96-0.24,1.44-0.36c0.12-0.24,0.24-0.479,0.36-0.72
				c0.48-0.12,0.96-0.24,1.44-0.36c0-0.12,0-0.24,0-0.359c0.72-0.24,1.44-0.48,2.16-0.721c0-0.12,0-0.239,0-0.359
				c0.36,0,0.72,0,1.08,0c0-0.12,0-0.24,0-0.36c0.24,0,0.48,0,0.72,0c0-0.12,0-0.24,0-0.36c0.479,0,0.96,0,1.44,0
				c0-0.12,0-0.239,0-0.359c0.36,0,0.72,0,1.08,0c0-0.12,0-0.24,0-0.36c0.6,0,1.2,0,1.8,0c5.166-1.556,12.758-0.587,16.92,1.08
				c0.359,0,0.721,0,1.08,0c0,0.12,0,0.24,0,0.36c0.48,0.12,0.961,0.239,1.439,0.359c0,0.12,0,0.24,0,0.36c0.24,0,0.48,0,0.721,0
				c0,0.12,0,0.24,0,0.36c0.24,0,0.48,0,0.721,0c0,0.119,0,0.239,0,0.359c0.238,0,0.479,0,0.719,0l0.721,0.721
				c0.24,0,0.48,0,0.721,0c0.119,0.239,0.238,0.479,0.359,0.72c0.24,0,0.48,0,0.719,0c0.121,0.239,0.24,0.479,0.361,0.72
				c0.24,0,0.48,0,0.719,0c0.24,0.36,0.48,0.72,0.721,1.08c0.24,0,0.48,0,0.721,0c0.84,0.96,1.68,1.92,2.52,2.88
				c0.48,0.36,0.959,0.72,1.439,1.08c0,0.24,0,0.48,0,0.72c0.359,0.24,0.721,0.48,1.08,0.721c0,0.239,0,0.479,0,0.72
				c0.24,0.12,0.48,0.24,0.721,0.36c0,0.239,0,0.479,0,0.72c0.24,0.12,0.48,0.24,0.719,0.359c0.121,0.36,0.24,0.721,0.361,1.08
				c0.119,0,0.24,0,0.359,0c0.119,0.48,0.24,0.96,0.359,1.44c0.121,0,0.24,0,0.361,0c0.119,0.479,0.24,0.96,0.359,1.439
				c0.119,0,0.24,0,0.359,0c0,0.36,0,0.721,0,1.08C109.237,23.941,110.543,28.846,110.534,35.344L110.534,35.344z"/>
		</defs>
		<defs>
			<rect id="SVGID_2_" x="0.014" y="-601.855" width="612" height="792"/>
		</defs>
		<clipPath id="SVGID_3_">
			<use xlink:href="#SVGID_1_"  overflow="visible"/>
		</clipPath>
		<clipPath id="SVGID_4_" clip-path="url(#SVGID_3_)">
			<use xlink:href="#SVGID_2_"  overflow="visible"/>
		</clipPath>
		<g clip-path="url(#SVGID_4_)">
			
				<image overflow="visible" width="436" height="531" xlink:href="C8D70A56.jpg"  transform="matrix(0.36 0 0 0.36 0.0142 -1.0156)">
			</image>
		</g>
	</g>
</g>
</svg>
