<?xml version="1.0" encoding="utf-8"?>
<!-- Generator: Adobe Illustrator 14.0.0, SVG Export Plug-In . SVG Version: 6.00 Build 43363)  -->
<!DOCTYPE svg PUBLIC "-//W3C//DTD SVG 1.1//EN" "http://www.w3.org/Graphics/SVG/1.1/DTD/svg11.dtd">
<svg version="1.1" id="Layer_1" xmlns="http://www.w3.org/2000/svg" xmlns:xlink="http://www.w3.org/1999/xlink" x="0px" y="0px"
	 width="156.848px" height="190.145px" viewBox="0 0 156.848 190.145" enable-background="new 0 0 156.848 190.145"
	 xml:space="preserve">
<g>
	<path fill-rule="evenodd" clip-rule="evenodd" fill="#60BF70" d="M3.689,172.808c0-4.643,0-9.283,0-13.926
		c1.248-12.473,4.553-28.541,8.703-40.73c1.239-3.639,3.02-9.328,4.874-11.141c3.282-3.209,12.432-5.381,17.407-6.963
		c3.173-1.01,6.312-1.998,9.399-2.785c3.134-0.799,6.721-0.822,9.052-3.133c-4.53,0.094-12.576,0.816-18.103,0l0.116-0.929
		l-0.812-0.464c-0.11-1.654,0.588-6.514-0.348-7.66l0.696-0.521v-0.87c3.048-0.897,8.714,0.823,9.748-2.089l0.423,0.473l0.622-0.125
		c0.044,0.625-0.426,0.734-0.348,1.393c2.261-0.656,5.148,1.451,6.267-0.348c-0.521-2.174-2.624,0.354-3.83-1.045
		c-2.627-3.047,1.279-13.643-2.089-16.361l-0.406-0.523l-0.638,0.175c1.205-4.401-1.69-7.231-3.829-9.399
		c1.518-0.339,1.826-1.888,2.785-2.785l0.373,0.621l0.671-0.273c3.863,0.992,4.104-5.998,1.044-5.918l-0.832-0.367l-0.561,0.715
		c-3.449-4.209-11.869-3.448-11.488-11.488l0.522-0.609l-0.174-0.783c4.951-4.969,10.405,1.477,14.97,3.133l0.721,1.566l1.716-0.174
		c-0.195,1.722,1.352,2.079,2.089,1.044l0.313,0.662l0.731,0.034c0.058,1.675,1.676,1.565,2.089,0.349l0.348,0.609l0.696,0.086
		c-0.025,1.044,1.024,1.768,1.741,1.045l0.696,0.174l0.696-0.174c0.154,1.223,0.734,1.477,1.741,1.045l0.696,0.174l0.696-0.174
		c0.432,1.064,1.013,1.11,1.741,0.348l0.464,0.812l0.928-0.116c0.458,0.446,1.283,0.446,1.741,0l0.671,0.273l0.373-0.622
		c0.4,0.619,1.202,1.59,2.089,0.697l0.671,0.273l0.373-0.622c0.399,0.618,1.201,1.589,2.088,0.696l0.522,0.871l0.522-0.871
		c0.6,0.634,1.636,1.045,2.089,0l0.671,0.273l0.373-0.621c0.525,0.974,1.282,1.31,2.088,0.348l0.522,0.871l0.87-0.523
		c0.647,0.678,1.407,0.24,1.741-0.348l0.671,0.273l0.373-0.621c0.321,0.912,1.768,0.912,2.089,0l0.696,0.348l0.349-0.696
		c0.731,0.767,1.357,0.767,2.089,0l0.671,0.273l0.373-0.622c0.321,0.912,1.768,0.912,2.089,0l0.696,0.349l0.349-0.696
		c0.807,0.962,1.563,0.626,2.088-0.348l0.696,0.348l0.349-0.696c0.937,1.179,1.676,0.398,2.089-0.696l0.696,0.783l0.696-0.783
		c0.279,0.184,0.565,0.363,1.044,0.348c0.066-0.281,0.35-0.346,0.349-0.695l0.928,0.115l0.465-0.812
		c0.864,0.824,2.185,0.139,1.74-1.393l0.696,0.175l0.696-0.175c1.072,0.971,2.18-0.135,1.741-1.74l1.653,0.174l1.131-1.218
		c4.137-2.396,14.45-9.64,14.97-0.696c0.224,3.845-2.758,5.703-5.918,7.311c-2.552,1.299-11.325,2.303-8.703,7.659
		c0.63,1.288,4.172,0.556,4.874,2.784c0.456,1.449-1.162,4.519-1.741,6.268c-0.671,2.029-1.691,3.89-2.089,5.918
		c-0.556,2.841,0.312,13.002-1.044,14.621c-0.662,0.791-3.109-0.056-3.829,0.697c-0.968,1.011-2.838,11.195-1.741,12.532
		c0.895,1.091,7.591,1.419,10.096,2.089c2.49,0.666,6.587,1.969,9.052,2.785c4.829,1.598,14.021,4.293,16.71,7.311
		c2.309,2.59,5.06,12.18,6.615,17.406c4.515,15.176,8.416,32.557,5.918,52.568c-0.333,2.666-1.037,9.088-2.089,9.748
		c-1.558,0.977-12.601,0-14.97,0c-5.362,0-9.812-0.232-14.273,0.348l-0.174-0.521l-0.174-0.523
		c2.425-1.006,0.058-7.494,0.348-10.443l0.639,0.174l0.406-0.521c1.996,0.139,3.034-0.68,4.525-1.045l0.174,1.219l1.219,0.174
		c2.353,0.49,5.4-1.326,8.703-1.045c1.212-0.457-0.997-0.971-1.044-1.393c-0.075-0.67,2.342-3.188,3.133-4.873
		c3.992-8.516,0.979-20.504-8.355-22.977l0.174-0.783l-0.521-0.609c3.032-3.93,8.175-5.75,9.747-11.141
		c-5.602-0.08-11.19,8.723-15.317,11.836l-1.219-0.174l0.174,1.219c-1.346-0.186-1.699,0.621-3.133,0.348l-0.406-0.521l-0.638,0.174
		c-0.261-4.25-0.491-9.59-0.696-14.273c-0.11-2.504,0.873-5.77-1.045-7.311c-0.501,0.078-0.121,1.039-0.696,1.045l-0.174-0.523
		l-0.522,0.174c0.4-1.938-1.563-2.098-1.74-0.695l-0.174-0.521l-0.522-0.174c-0.066-0.283-0.35-0.348-0.349-0.697
		c-0.928,0-1.856,0-2.785,0l0.175-1.219l-1.219,0.174c-0.077-4.07-6.263-3.088-6.614,0l-1.219-0.174l0.174,1.219
		c-0.58,0-1.16,0-1.74,0l0.174-0.871l-0.87-0.174c0.298-1.109-0.548-1.076-0.696-1.74l0.661-0.312l0.035-0.732
		c1.135-7.916,2.701-15.4,4.178-22.977c-5.595,1.854-12.512,4.045-19.147,4.525c-1.059,0.078-4.174-0.562-3.481,0.697l-0.696,0.348
		l0.348,0.697c-1.812,5.471,0.08,13.928,1.393,19.494l-0.87,0.174l0.174,0.871c-3.48,0-6.962,0-10.444,0l0.174-0.871l-0.87-0.174
		c-0.005-7.506,6.633-13.553,3.481-19.844l0.174-0.521l-0.174-0.521c-7.546-0.811-14.655-2.057-20.54-4.527l-0.522-1.218
		l-0.522,1.218c-0.116,0-0.232,0-0.348,0c1.404,7.299,2.722,14.686,4.177,21.934l-0.754-0.059l0.058,0.754
		c-2.581-0.258-3.304,1.338-4.178,2.785l-0.871,0.174l0.174,0.871c-0.812,0-1.625,0-2.437,0l0.174-1.219l-1.218,0.174
		c-0.398-3.768-6.464-3.33-6.963,0l-1.218-0.174l0.174,1.219c-0.812,0-1.625,0-2.437,0c0.225,6.158-0.455,13.219,0.348,18.799
		l-0.662,0.314l-0.035,0.73c-3.715,0.656-8.574,3.227-6.267,7.658l-0.367,0.832l0.715,0.561c-2.773,0.01-4.855,7.873,0,7.311
		l-0.174,0.941l0.522,0.801c-1.493,1.305-2.065,7.51,1.741,6.613l-0.174,0.783l0.522,0.609c-0.744,2.107-0.702,6.209,2.785,5.223
		l0.174,0.871l0.871-0.176c0,3.83,0,7.66,0,11.488l-0.522,0.176l0.174,0.521c-6.648,0-15.731,0-24.021,0
		c-1.569,0-6.948,0.516-7.659,0c-0.792-0.576-1.192-5.77-1.393-6.963C4.267,177.339,4.338,174.892,3.689,172.808z M79.234,60.708
		c2.383,0,2.084,5.57,3.829,3.83c0.71-0.707,0.587-1.894,0.349-2.785c-1.325-4.951-11.981-2.154-6.963,3.133
		C77.905,62.269,77.021,60.708,79.234,60.708z M61.479,66.627c-0.349,9.206,12.074,7.553,12.185,0.349
		c0.064-4.117-2.679-7.062-8.007-5.57C62.631,62.251,61.568,64.282,61.479,66.627z M85.152,68.02
		c0.953,6.782,12.185,6.475,12.185-1.044c0-3.932-2.612-7.01-8.007-5.57C86.35,62.2,84.573,63.901,85.152,68.02z"/>
	<path fill-rule="evenodd" clip-rule="evenodd" fill="#60BF70" d="M49.605,32.729l-1.355,0.129
		C51.315,16.08,62.245,2.795,81.323,3.963c16.986,1.04,25.983,12.298,28.896,28.199l-1.717-0.174l-0.721,1.566
		c-1.297-0.369-1.124,0.733-1.74,1.044l-0.731,0.035l-0.313,0.662c-0.296,0.064-0.328-0.136-0.348-0.348
		c-0.728-0.147-0.922,0.238-1.393,0.348l-1.175-0.609l-0.218,1.306c-1.007-0.432-1.587-0.178-1.741,1.044l-0.696-0.174l-0.696,0.174
		c-0.692-0.726-1.486-0.011-1.74,0.696l-0.696,0.087l-0.349,0.61c-0.524-0.975-1.281-1.311-2.088-0.349l-0.731,0.034l-0.313,0.662
		c-0.6-0.635-1.636-1.044-2.089,0l-0.671-0.273l-0.373,0.621c-0.321-0.912-1.768-0.912-2.089,0l-0.672-0.273l-0.373,0.622
		c-0.453-1.044-1.489-0.634-2.089,0l-0.521-0.87l-0.522,0.87c-0.296,0.063-0.328-0.136-0.349-0.349
		c-0.728-0.146-0.922,0.238-1.393,0.349l-0.696-1.044l-0.696,1.044c-0.73-0.767-1.357-0.767-2.088,0l-0.671-0.274l-0.373,0.623
		c-0.321-0.913-1.768-0.913-2.089,0l-0.373-0.623l-0.671,0.274c-0.544-1.225-1.701-0.489-2.088,0.349l-0.349-0.609l-0.696-0.088
		c-0.066-0.281-0.35-0.347-0.348-0.695c-1.297-0.369-1.124,0.732-1.741,1.044l-0.348-0.609l-0.696-0.087
		c-0.066-0.282-0.349-0.348-0.348-0.696c-0.728-0.147-0.922,0.238-1.393,0.349l-0.464-0.813l-0.928,0.116
		c-0.647-0.678-1.407-0.239-1.741,0.348l-0.522-0.696l-0.522,0.696c-0.413-1.095-1.152-1.875-2.089-0.696l-0.313-0.662l-0.731-0.035
		c-0.525-0.974-1.281-1.31-2.089-0.348l-0.313-0.662l-0.731-0.035c-0.254-0.708-1.472-0.998-2.089-0.348l-0.313-0.662l-0.731-0.035
		c-0.209-0.719-0.539-1.318-1.741-1.044L49.605,32.729z"/>
	<g>
		<g>
			<path fill="#60BF70" d="M118.921,154.583c-0.219,0-0.397-0.176-0.4-0.396c-0.021-1.62-0.109-3.268-0.194-4.859
				c-0.135-2.513-0.274-5.11-0.154-7.697c0.011-0.221,0.207-0.369,0.419-0.382c0.221,0.011,0.392,0.198,0.382,0.419
				c-0.119,2.547,0.02,5.124,0.153,7.617c0.086,1.601,0.175,3.255,0.195,4.893c0.003,0.221-0.174,0.402-0.396,0.405
				C118.924,154.583,118.923,154.583,118.921,154.583L118.921,154.583z"/>
		</g>
		<g>
			<path fill="#60BF70" d="M27.574,93.408c-1.855,0-3.712-0.77-5.24-2.249c-2.296-2.221-3.188-5.374-2.362-8.095
				c-5.873-0.534-9.514-5.191-10.443-9.483c-0.794-3.671,0.127-8.425,4.903-11.214c-3.447-2.444-5.241-6.209-4.72-10.047
				c0.533-3.93,3.341-7.047,7.328-8.136c0.626-0.171,1.293-0.178,1.938-0.184c1.665-0.017,2.205-0.128,2.225-1.384
				c0.047-3.01,1.282-5.473,3.479-6.936c2.38-1.583,5.535-1.778,8.657-0.529c0.32,0.128,0.476,0.492,0.348,0.812
				c-0.128,0.32-0.493,0.475-0.812,0.348c-2.736-1.095-5.469-0.944-7.501,0.409c-1.844,1.228-2.882,3.329-2.922,5.916
				c-0.041,2.58-2.018,2.6-3.461,2.614c-0.565,0.005-1.15,0.011-1.621,0.14c-3.495,0.955-5.955,3.675-6.419,7.099
				c-0.503,3.713,1.377,7.226,5.032,9.397l1.003,0.596l-1.053,0.504c-4.956,2.373-5.926,6.893-5.182,10.332
				c0.874,4.035,4.412,8.43,10.118,8.546l0.948,0.019l-0.392,0.864c-1.262,2.783-0.016,5.78,1.779,7.515
				c2.009,1.944,4.56,2.435,6.822,1.317c0.311-0.153,0.685-0.025,0.837,0.283c0.153,0.309,0.026,0.684-0.283,0.837
				C29.615,93.175,28.594,93.408,27.574,93.408L27.574,93.408z"/>
		</g>
		<g>
			<path fill="#60BF70" d="M48.622,40.836c-0.173,0-0.349-0.038-0.516-0.118c-0.591-0.285-0.84-0.996-0.555-1.588
				c0.421-0.874,0.426-1.94,0.432-3.069c0.006-1.231,0.012-2.503,0.517-3.772c0.243-0.61,0.935-0.909,1.545-0.665
				c0.61,0.243,0.908,0.935,0.665,1.545c-0.338,0.85-0.343,1.847-0.348,2.903c-0.006,1.281-0.013,2.733-0.667,4.091
				C49.489,40.588,49.064,40.836,48.622,40.836L48.622,40.836z"/>
		</g>
		<g>
			<path fill="#60BF70" d="M52.741,41.721c-0.048,0-0.098-0.006-0.146-0.02c-0.289-0.081-0.457-0.38-0.376-0.668
				c0.271-0.97,0.231-2.006,0.188-3.103c-0.043-1.134-0.089-2.307,0.229-3.443c0.081-0.289,0.379-0.458,0.669-0.376
				c0.289,0.081,0.457,0.38,0.376,0.669c-0.272,0.972-0.232,2.01-0.19,3.108c0.043,1.132,0.089,2.303-0.228,3.437
				C53.196,41.565,52.978,41.721,52.741,41.721L52.741,41.721z"/>
		</g>
		<g>
			<path fill="#60BF70" d="M109.783,40.552c-0.474,0-0.928-0.271-1.139-0.729c-0.603-1.306-0.578-2.672-0.557-3.878
				c0.022-1.264,0.042-2.355-0.593-3.209c-0.412-0.556-0.297-1.34,0.259-1.753c0.556-0.412,1.34-0.297,1.753,0.259
				c1.144,1.539,1.113,3.244,1.087,4.748c-0.019,1.028-0.036,2,0.326,2.785c0.29,0.628,0.016,1.373-0.613,1.662
				C110.137,40.514,109.959,40.552,109.783,40.552L109.783,40.552z"/>
		</g>
		<g>
			<path fill="#60BF70" d="M55.909,42.714c-0.042,0-0.086-0.005-0.129-0.015c-0.291-0.071-0.47-0.365-0.399-0.656
				c0.233-0.955,0.196-1.961,0.157-3.026c-0.042-1.146-0.084-2.331,0.229-3.482c0.079-0.289,0.378-0.46,0.667-0.38
				c0.289,0.079,0.459,0.377,0.38,0.667c-0.271,0.991-0.232,2.042-0.192,3.156c0.04,1.092,0.081,2.221-0.187,3.322
				C56.376,42.548,56.154,42.714,55.909,42.714L55.909,42.714z"/>
		</g>
		<g>
			<path fill="#60BF70" d="M105.691,41.599c-0.261,0-0.494-0.184-0.547-0.449c-0.215-1.066-0.193-2.149-0.173-3.198
				c0.021-1.119,0.042-2.176-0.205-3.185c-0.074-0.3,0.109-0.603,0.41-0.677c0.298-0.07,0.603,0.111,0.676,0.41
				c0.282,1.151,0.26,2.332,0.237,3.474c-0.021,1.033-0.039,2.009,0.15,2.955c0.062,0.303-0.135,0.598-0.438,0.659
				C105.765,41.595,105.728,41.599,105.691,41.599L105.691,41.599z"/>
		</g>
		<g>
			<path fill="#60BF70" d="M44.843,82.548c-0.084,0-0.169-0.022-0.247-0.069c-0.226-0.137-0.298-0.431-0.162-0.656
				c1.427-2.36,0.924-5.536-1.225-7.724c-0.185-0.188-0.183-0.491,0.006-0.676s0.491-0.184,0.676,0.006
				c2.455,2.499,3.014,6.154,1.361,8.888C45.162,82.466,45.004,82.548,44.843,82.548L44.843,82.548z"/>
		</g>
		<g>
			<path fill="#60BF70" d="M39.372,71.997c-0.215,0-0.414-0.142-0.476-0.36c-0.075-0.263,0.078-0.537,0.341-0.612
				c2.529-0.721,4.724-3.216,5.337-6.069c0.058-0.268,0.322-0.438,0.588-0.38c0.268,0.058,0.438,0.321,0.38,0.588
				c-0.687,3.195-3.168,5.997-6.035,6.814C39.463,71.99,39.417,71.997,39.372,71.997L39.372,71.997z"/>
		</g>
		<g>
			<path fill="#60BF70" d="M43.748,54.336c-0.085,0-0.172-0.017-0.256-0.052c-0.339-0.142-0.498-0.531-0.356-0.869
				c0.957-2.286,1.233-4.304,0.847-6.167c-0.075-0.359,0.156-0.711,0.515-0.786c0.365-0.077,0.711,0.156,0.786,0.515
				c0.443,2.135,0.142,4.409-0.922,6.95C44.255,54.182,44.009,54.336,43.748,54.336L43.748,54.336z"/>
		</g>
		<g>
			<path fill="#60BF70" d="M30.302,92.808c-0.256,0-0.5-0.147-0.612-0.396c-1.117-2.484-0.838-5.657,0.647-7.378
				c1.074-1.244,2.677-1.644,4.517-1.124c0.356,0.101,0.563,0.471,0.463,0.827s-0.472,0.564-0.827,0.463
				c-1.347-0.38-2.403-0.142-3.138,0.709c-1.129,1.309-1.327,3.979-0.44,5.953c0.152,0.338,0.001,0.735-0.336,0.886
				C30.487,92.789,30.394,92.808,30.302,92.808L30.302,92.808z"/>
		</g>
		<g>
			<path fill="#60BF70" d="M59.042,44.034c-0.035,0-0.071-0.003-0.107-0.01c-0.303-0.059-0.5-0.353-0.441-0.655
				c0.196-1.004,0.175-2.038,0.153-3.131c-0.024-1.198-0.05-2.437,0.235-3.644c0.07-0.3,0.368-0.488,0.671-0.415
				c0.3,0.071,0.485,0.371,0.415,0.671c-0.252,1.068-0.229,2.184-0.206,3.364c0.023,1.104,0.046,2.247-0.173,3.368
				C59.537,43.849,59.304,44.034,59.042,44.034L59.042,44.034z"/>
		</g>
		<g>
			<path fill="#60BF70" d="M102.79,43.781c-0.312,0-0.598-0.206-0.685-0.521c-0.374-1.342-0.312-2.724-0.253-4.06
				c0.067-1.518,0.131-2.952-0.425-4.231c-0.156-0.36,0.009-0.779,0.369-0.936c0.363-0.156,0.779,0.009,0.936,0.369
				c0.686,1.581,0.612,3.248,0.54,4.861c-0.057,1.281-0.11,2.491,0.202,3.616c0.105,0.378-0.116,0.77-0.494,0.875
				C102.917,43.772,102.853,43.781,102.79,43.781L102.79,43.781z"/>
		</g>
		<g>
			<path fill="#60BF70" d="M62.176,45.076c-0.025,0-0.05-0.002-0.076-0.005c-0.304-0.042-0.516-0.321-0.475-0.625
				c0.208-1.53,0.189-3.131,0.17-4.679c-0.01-0.8-0.02-1.599,0-2.396c0.007-0.307,0.27-0.589,0.568-0.542
				c0.307,0.007,0.549,0.262,0.542,0.568c-0.019,0.783-0.009,1.569,0.001,2.355c0.02,1.589,0.04,3.231-0.18,4.843
				C62.687,44.874,62.449,45.076,62.176,45.076L62.176,45.076z"/>
		</g>
		<g>
			<path fill="#60BF70" d="M99.773,44.635c-0.26,0-0.491-0.186-0.54-0.451c-0.228-1.242-0.203-2.497-0.181-3.711
				c0.023-1.221,0.046-2.375-0.167-3.51c-0.057-0.299,0.141-0.586,0.438-0.642c0.293-0.058,0.585,0.14,0.642,0.438
				c0.234,1.248,0.21,2.512,0.187,3.734c-0.023,1.213-0.045,2.359,0.163,3.492c0.055,0.298-0.144,0.585-0.441,0.64
				C99.839,44.632,99.806,44.635,99.773,44.635L99.773,44.635z"/>
		</g>
		<g>
			<path fill="#60BF70" d="M65.077,46.218c-0.058,0-0.118-0.007-0.176-0.022c-0.381-0.097-0.61-0.484-0.513-0.865
				c0.301-1.178,0.257-2.423,0.21-3.743c-0.049-1.363-0.099-2.772,0.254-4.149c0.097-0.38,0.482-0.613,0.865-0.512
				c0.38,0.097,0.609,0.485,0.512,0.865c-0.302,1.178-0.257,2.425-0.21,3.746c0.048,1.361,0.099,2.769-0.253,4.145
				C65.683,46.005,65.394,46.218,65.077,46.218L65.077,46.218z"/>
		</g>
		<g>
			<path fill="#60BF70" d="M96.639,45.234c-0.249,0-0.473-0.173-0.526-0.427c-0.253-1.186-0.218-2.393-0.184-3.56
				c0.034-1.16,0.065-2.254-0.164-3.314c-0.063-0.291,0.122-0.579,0.413-0.642c0.285-0.06,0.579,0.122,0.642,0.413
				c0.258,1.188,0.223,2.401,0.188,3.574c-0.034,1.154-0.065,2.244,0.159,3.304c0.062,0.292-0.123,0.578-0.415,0.64
				C96.714,45.23,96.677,45.234,96.639,45.234L96.639,45.234z"/>
		</g>
		<g>
			<path fill="#60BF70" d="M68.416,46.204c-0.275,0-0.51-0.208-0.537-0.488c-0.26-2.689-0.25-4.956,0.028-6.928
				c0.042-0.295,0.314-0.507,0.609-0.459c0.295,0.042,0.501,0.314,0.459,0.609c-0.266,1.887-0.273,4.07-0.022,6.674
				c0.029,0.296-0.188,0.56-0.485,0.589C68.451,46.203,68.433,46.204,68.416,46.204L68.416,46.204z"/>
		</g>
		<g>
			<path fill="#60BF70" d="M93.506,45.93c-0.249,0-0.473-0.174-0.526-0.428c-0.26-1.225-0.221-2.474-0.183-3.683
				c0.039-1.255,0.076-2.441-0.197-3.58c-0.069-0.29,0.108-0.581,0.398-0.65c0.291-0.071,0.58,0.109,0.65,0.398
				c0.308,1.279,0.267,2.594,0.227,3.865c-0.037,1.197-0.072,2.328,0.159,3.425c0.062,0.292-0.124,0.578-0.416,0.64
				C93.581,45.927,93.543,45.93,93.506,45.93L93.506,45.93z"/>
		</g>
		<g>
			<path fill="#60BF70" d="M71.55,46.552c-0.275,0-0.51-0.208-0.537-0.488c-0.26-2.689-0.251-4.956,0.027-6.928
				c0.042-0.295,0.316-0.504,0.609-0.459c0.295,0.042,0.501,0.314,0.459,0.609c-0.266,1.887-0.273,4.07-0.021,6.674
				c0.029,0.296-0.188,0.56-0.485,0.589C71.584,46.552,71.567,46.552,71.55,46.552L71.55,46.552z"/>
		</g>
		<g>
			<path fill="#60BF70" d="M90.348,46.201c-0.256,0-0.482-0.184-0.527-0.444c-0.217-1.228-0.186-2.475-0.156-3.681
				c0.029-1.21,0.058-2.354-0.142-3.479c-0.052-0.292,0.143-0.571,0.435-0.623c0.296-0.049,0.57,0.143,0.622,0.435
				c0.219,1.231,0.188,2.483,0.158,3.692c-0.029,1.207-0.058,2.347,0.14,3.47c0.052,0.292-0.144,0.57-0.436,0.622
				C90.41,46.198,90.379,46.201,90.348,46.201L90.348,46.201z"/>
		</g>
		<g>
			<path fill="#60BF70" d="M74.534,47.495c-0.007,0-0.014,0-0.02,0c-0.296-0.011-0.527-0.26-0.517-0.556
				c0.035-0.962,0.017-1.954-0.001-2.913c-0.03-1.607-0.061-3.268,0.154-4.897c0.039-0.294,0.308-0.5,0.602-0.461
				c0.294,0.039,0.5,0.308,0.461,0.602c-0.205,1.549-0.174,3.17-0.145,4.737c0.018,0.974,0.037,1.98,0,2.972
				C75.059,47.267,74.822,47.495,74.534,47.495L74.534,47.495z"/>
		</g>
		<g>
			<path fill="#60BF70" d="M80.8,47.505c-0.005,0-0.011,0-0.017,0c-0.302-0.009-0.539-0.261-0.53-0.563
				c0.03-1.015,0.017-2.035,0.003-3.056c-0.024-1.81-0.05-3.682,0.175-5.523c0.037-0.3,0.314-0.511,0.609-0.477
				c0.3,0.037,0.513,0.31,0.477,0.609c-0.216,1.768-0.191,3.602-0.167,5.376c0.014,1.017,0.027,2.068-0.003,3.103
				C81.338,47.271,81.095,47.505,80.8,47.505L80.8,47.505z"/>
		</g>
		<g>
			<path fill="#60BF70" d="M87.24,46.624c-0.251,0-0.476-0.178-0.526-0.434c-0.247-1.266-0.214-2.553-0.183-3.797
				c0.03-1.2,0.06-2.333-0.142-3.447c-0.053-0.292,0.142-0.571,0.433-0.624c0.286-0.049,0.571,0.141,0.624,0.433
				c0.221,1.222,0.188,2.464,0.158,3.665c-0.031,1.241-0.061,2.414,0.164,3.564c0.057,0.291-0.134,0.573-0.425,0.63
				C87.309,46.621,87.274,46.624,87.24,46.624L87.24,46.624z"/>
		</g>
		<g>
			<path fill="#60BF70" d="M77.816,46.898c-0.256,0-0.482-0.184-0.528-0.444c-0.216-1.229-0.186-2.477-0.156-3.684
				c0.029-1.21,0.058-2.353-0.142-3.478c-0.052-0.292,0.143-0.571,0.435-0.623c0.294-0.049,0.571,0.144,0.623,0.435
				c0.218,1.231,0.188,2.482,0.158,3.692c-0.029,1.207-0.057,2.347,0.141,3.471c0.051,0.292-0.144,0.571-0.436,0.622
				C77.878,46.895,77.846,46.898,77.816,46.898L77.816,46.898z"/>
		</g>
		<g>
			<path fill="#60BF70" d="M84.081,46.897c-0.266,0-0.496-0.198-0.531-0.469c-0.211-1.652-0.183-3.336-0.154-4.965
				c0.016-0.936,0.032-1.903,0.002-2.844c-0.01-0.296,0.223-0.544,0.519-0.553c0.287-0.033,0.545,0.223,0.554,0.519
				c0.031,0.966,0.015,1.947-0.002,2.896c-0.027,1.591-0.055,3.235,0.146,4.811c0.037,0.294-0.17,0.562-0.464,0.6
				C84.127,46.896,84.105,46.897,84.081,46.897L84.081,46.897z"/>
		</g>
		<g>
			<path fill="#60BF70" d="M34.234,94.014c-1.248,0-2.454-0.505-3.547-0.962c-0.217-0.091-0.432-0.181-0.644-0.265
				c-0.358-0.143-0.533-0.549-0.39-0.908c0.144-0.359,0.55-0.533,0.908-0.39c0.219,0.087,0.441,0.18,0.666,0.274
				c1.259,0.526,2.562,1.072,3.733,0.763c0.373-0.098,0.755,0.124,0.854,0.497s-0.124,0.755-0.497,0.854
				C34.952,93.972,34.592,94.014,34.234,94.014L34.234,94.014z"/>
		</g>
		<g>
			<path fill="#60BF70" d="M91.843,111.118c-0.013,0-0.026,0-0.039,0c-1.544-0.051-2.716-1.807-4.072-3.84
				c-1.561-2.338-3.35-4.996-5.688-4.893c-0.357-0.004-0.608-0.244-0.622-0.573c-0.013-0.33,0.243-0.608,0.573-0.622
				c3.026-0.1,4.996,2.824,6.731,5.425c1.075,1.611,2.188,3.277,3.116,3.308c0.004,0,0.009,0,0.014,0
				c1.202,0,5.229-5.036,7.396-7.746c1.646-2.059,2.946-3.684,3.688-4.278c0.257-0.207,0.633-0.167,0.84,0.092
				c0.207,0.257,0.166,0.634-0.092,0.84c-0.638,0.513-2.029,2.252-3.501,4.094C96.232,107.868,93.507,111.118,91.843,111.118
				L91.843,111.118z"/>
		</g>
		<g>
			<path fill="#60BF70" d="M93.971,123.053c-0.004,0-0.008,0-0.012,0c-0.208-0.007-0.371-0.181-0.364-0.388
				c0.055-1.704,0.97-3.077,2.51-3.767c1.733-0.776,3.802-0.485,5.268,0.74c0.159,0.133,0.181,0.37,0.047,0.529
				c-0.133,0.159-0.37,0.182-0.529,0.047c-1.228-1.027-3.027-1.281-4.478-0.63c-1.268,0.567-2.021,1.698-2.065,3.104
				C94.34,122.893,94.173,123.053,93.971,123.053L93.971,123.053z"/>
		</g>
		<g>
			<path fill="#60BF70" d="M67.086,123.143c-1.394,0-2.796-0.069-4.178-0.138c-1.014-0.051-2.019-0.101-3.003-0.122
				c-0.21-0.004-0.376-0.178-0.372-0.388c0.005-0.208,0.174-0.372,0.38-0.372c0.002,0,0.005,0,0.008,0
				c0.992,0.021,2.003,0.071,3.024,0.122c3.287,0.165,6.687,0.332,9.753-0.46c0.203-0.05,0.41,0.069,0.463,0.273
				c0.052,0.203-0.07,0.41-0.273,0.463C71.024,123.003,69.063,123.143,67.086,123.143L67.086,123.143z"/>
		</g>
		<g>
			<path fill="#60BF70" d="M66.487,111.619l-0.464-0.493c-0.67-0.713-1.366-1.435-2.072-2.166c-3.983-4.128-8.102-8.396-10.1-13.417
				c-0.108-0.271,0.024-0.58,0.296-0.688c0.27-0.107,0.579,0.024,0.688,0.296c1.921,4.826,5.966,9.018,9.878,13.073
				c0.545,0.565,1.085,1.125,1.612,1.679c0.237-0.384,0.474-0.777,0.713-1.176c1.929-3.212,4.114-6.853,8.447-7.635
				c0.289-0.054,0.563,0.14,0.615,0.428c0.052,0.287-0.139,0.563-0.427,0.615c-3.86,0.696-5.827,3.971-7.728,7.137
				c-0.366,0.609-0.725,1.208-1.092,1.777L66.487,111.619L66.487,111.619z"/>
		</g>
		<g>
			<path fill="#60BF70" d="M59.912,122.855c-0.039,0-0.078-0.006-0.116-0.02c-0.184-0.064-0.28-0.265-0.216-0.448
				c0.499-1.422-0.798-2.363-2.414-3.361l-0.461-0.289c-0.164-0.104-0.211-0.322-0.106-0.485c0.104-0.164,0.321-0.213,0.486-0.106
				l0.452,0.282c1.367,0.845,3.433,2.121,2.708,4.192C60.194,122.764,60.057,122.855,59.912,122.855L59.912,122.855z"/>
		</g>
		<g>
			<path fill="#60BF70" d="M98.365,127.398c-1.066,0-2.314-0.462-3.343-1.287c-1.256-1.008-1.854-2.296-1.644-3.534
				c0.056-0.328,0.369-0.549,0.692-0.491c0.327,0.056,0.547,0.366,0.491,0.692c-0.192,1.131,0.783,2.053,1.212,2.396
				c1.051,0.845,2.441,1.238,3.229,0.915c0.219-0.089,0.381-0.232,0.491-0.436c-1.547-0.365-2.455-0.942-2.704-1.72
				c-0.167-0.522-0.014-1.061,0.431-1.516c0.848-0.868,2.881-1.458,4.983-0.841c0.318,0.094,0.5,0.427,0.407,0.745
				c-0.094,0.318-0.424,0.502-0.745,0.407c-1.735-0.512-3.285,0.012-3.787,0.527c-0.084,0.086-0.178,0.21-0.146,0.312
				c0.076,0.236,0.671,0.722,2.419,1.037l0.558,0.101l-0.068,0.562c-0.112,0.928-0.604,1.614-1.386,1.933
				C99.132,127.334,98.761,127.398,98.365,127.398L98.365,127.398z"/>
		</g>
		<g>
			<path fill="#60BF70" d="M52.452,158.049c-0.21,0-0.41-0.126-0.495-0.333c-0.111-0.273,0.02-0.585,0.293-0.695
				c1.726-0.703,1.956-1.917,1.845-2.812c-0.233-1.876-2.105-3.756-4.006-4.023c-0.292-0.041-0.496-0.311-0.455-0.603
				c0.042-0.291,0.308-0.496,0.603-0.454c2.374,0.333,4.625,2.6,4.917,4.949c0.219,1.762-0.693,3.194-2.502,3.931
				C52.588,158.036,52.52,158.049,52.452,158.049L52.452,158.049z"/>
		</g>
		<g>
			<path fill="#60BF70" d="M51.208,166.03c-0.281,0-0.515-0.22-0.531-0.504c-0.016-0.293,0.209-0.544,0.502-0.56
				c2.165-0.117,3.732-1.287,3.994-2.979c0.255-1.651-0.887-3.211-2.909-3.974c-0.274-0.104-0.414-0.411-0.31-0.686
				c0.104-0.274,0.412-0.414,0.686-0.311c2.513,0.948,3.92,2.963,3.584,5.132c-0.28,1.812-1.931,3.714-4.987,3.88
				C51.228,166.029,51.218,166.03,51.208,166.03L51.208,166.03z"/>
		</g>
		<g>
			<path fill="#60BF70" d="M37.284,175.615c-0.165,0-0.327-0.074-0.434-0.216c-0.181-0.239-0.134-0.58,0.105-0.762
				c1.617-1.225,4.524-1.606,7.602-2.01c3.453-0.454,7.023-0.923,7.728-2.61c0.394-0.943-0.114-2.354-1.509-4.191
				c-0.182-0.239-0.135-0.581,0.104-0.763c0.239-0.182,0.58-0.134,0.762,0.104c1.67,2.2,2.208,3.924,1.647,5.269
				c-0.946,2.266-4.659,2.753-8.59,3.27c-2.802,0.368-5.699,0.748-7.087,1.799C37.513,175.579,37.398,175.615,37.284,175.615
				L37.284,175.615z"/>
		</g>
		<g>
			<path fill="#60BF70" d="M77.146,187.147c-13.203,0-26.407-0.072-39.519-0.217c-0.205-0.002-0.369-0.17-0.366-0.374
				s0.189-0.402,0.374-0.366c26.219,0.289,52.804,0.289,79.019,0c0.001,0,0.003,0,0.004,0c0.203,0,0.368,0.163,0.37,0.366
				c0.002,0.204-0.161,0.372-0.366,0.374C103.552,187.074,90.35,187.147,77.146,187.147L77.146,187.147z"/>
		</g>
		<g>
			<path fill="#60BF70" d="M116.658,186.96c-0.217,0-0.395-0.173-0.4-0.39c-0.129-4.991-0.31-10.096-0.484-15.033
				c-0.554-15.651-1.126-31.835-0.211-47.665c0.012-0.221,0.204-0.412,0.423-0.376c0.221,0.013,0.389,0.202,0.376,0.423
				c-0.912,15.792-0.34,31.957,0.213,47.59c0.174,4.939,0.354,10.046,0.484,15.04c0.006,0.222-0.169,0.405-0.39,0.411
				C116.665,186.96,116.661,186.96,116.658,186.96L116.658,186.96z"/>
		</g>
		<g>
			<path fill="#60BF70" d="M109.105,127.499c-0.022,0-0.045-0.001-0.067-0.001c-2.411-0.042-5.948-2.208-6.232-5.641
				c-0.028-0.345,0.228-0.647,0.572-0.676c0.337-0.036,0.646,0.228,0.676,0.572c0.22,2.651,3.159,4.459,5.006,4.491
				c0.388,0.019,0.838-0.057,0.878-0.397c0.035-0.295,0.024-0.458,0.011-0.539c-0.128,0.008-0.346,0.057-0.5,0.091
				c-0.652,0.151-1.871,0.421-2.497-0.78c-0.186-0.354-0.751-1.435-0.229-2.249c0.564-0.885,1.935-0.814,3.256-0.752
				c0.618,0.033,1.768,0.086,1.958-0.117c0.163-0.305,0.539-0.418,0.847-0.249c0.304,0.164,0.415,0.548,0.25,0.852
				c-0.484,0.896-1.761,0.83-3.116,0.767c-0.688-0.035-1.966-0.097-2.139,0.175c-0.002,0.002-0.126,0.212,0.283,0.994
				c0.145,0.274,0.298,0.322,1.112,0.139c0.515-0.115,1.155-0.26,1.626,0.165c0.469,0.422,0.442,1.145,0.383,1.651
				C111.095,126.727,110.503,127.499,109.105,127.499L109.105,127.499z"/>
		</g>
		<g>
			<path fill="#60BF70" d="M87.397,123.129c-1.571,0-3.139-0.124-4.627-0.612c-0.2-0.066-0.31-0.282-0.244-0.482
				c0.067-0.2,0.282-0.311,0.482-0.244c2.13,0.701,4.503,0.603,6.8,0.51c1.382-0.057,2.811-0.114,4.194-0.004
				c0.21,0.018,0.366,0.201,0.35,0.412c-0.018,0.209-0.181,0.368-0.412,0.35c-1.333-0.109-2.741-0.05-4.101,0.005
				C89.031,123.096,88.213,123.129,87.397,123.129L87.397,123.129z"/>
		</g>
		<g>
			<path fill="#60BF70" d="M56.628,127.396c-0.445,0-0.906-0.083-1.375-0.251c-1.988-0.711-3.724-2.874-3.952-4.924
				c-0.037-0.333,0.203-0.634,0.536-0.671c0.334-0.023,0.634,0.203,0.671,0.536c0.178,1.601,1.593,3.357,3.154,3.916
				c0.641,0.229,1.561,0.34,2.41-0.351c-0.038-0.383-0.252-0.449-1.097-0.516c-0.795-0.062-1.997-0.157-2.348-1.483l-0.032-0.119
				l0.018-0.123c0.101-0.702,0.384-1.222,0.841-1.544c0.83-0.587,1.988-0.354,3.009-0.148c0.535,0.107,1.043,0.215,1.401,0.18
				c0.332-0.023,0.626,0.224,0.653,0.558s-0.223,0.627-0.557,0.653c-0.53,0.042-1.116-0.076-1.736-0.201
				c-0.782-0.156-1.667-0.336-2.07-0.049c-0.059,0.041-0.229,0.161-0.317,0.595c0.134,0.333,0.434,0.409,1.233,0.472
				c0.847,0.067,2.265,0.179,2.222,2.007l-0.006,0.247l-0.177,0.173C58.401,127.042,57.548,127.396,56.628,127.396L56.628,127.396z"
				/>
		</g>
		<g>
			<path fill="#60BF70" d="M45.456,127.411c-0.343,0-0.692-0.052-1.044-0.156c-2.172-0.642-4.037-3.196-4.585-5.295
				c-0.085-0.326,0.11-0.659,0.436-0.745c0.326-0.078,0.659,0.11,0.745,0.437c0.453,1.732,2.015,3.921,3.75,4.434
				c0.783,0.229,1.496,0.087,2.17-0.444c-0.041-0.371-0.258-0.437-1.093-0.502c-0.796-0.062-1.999-0.157-2.351-1.485l-0.035-0.132
				l0.025-0.135c0.136-0.736,0.427-1.246,0.892-1.562c0.762-0.519,1.725-0.327,2.657-0.142c1.148,0.228,1.877,0.325,2.307-0.245
				c0.203-0.269,0.585-0.323,0.854-0.12c0.27,0.203,0.323,0.586,0.12,0.854c-0.922,1.224-2.362,0.938-3.519,0.708
				c-0.686-0.135-1.394-0.276-1.734-0.046c-0.155,0.105-0.271,0.316-0.346,0.628c0.136,0.322,0.437,0.396,1.226,0.459
				c0.848,0.066,2.268,0.179,2.224,2.01l-0.006,0.26l-0.192,0.176C47.2,127.059,46.349,127.411,45.456,127.411L45.456,127.411z"/>
		</g>
		<g>
			<path fill="#60BF70" d="M118.801,187.137c-0.731,0-1.48-0.071-2.214-0.214c-0.2-0.039-0.331-0.233-0.292-0.435
				c0.039-0.2,0.229-0.334,0.435-0.292c1.37,0.267,2.8,0.269,4.027,0.002c0.203-0.046,0.396,0.084,0.439,0.283
				c0.044,0.199-0.083,0.396-0.283,0.439C120.251,187.066,119.535,187.137,118.801,187.137L118.801,187.137z"/>
		</g>
		<g>
			<path fill="#60BF70" d="M120.834,186.967c-0.204,0-0.381-0.153-0.404-0.361c-0.882-7.812-1.491-16.45-1.916-27.184
				c-0.009-0.226,0.166-0.415,0.391-0.424c0.267,0,0.415,0.167,0.424,0.391c0.424,10.714,1.031,19.333,1.912,27.125
				c0.025,0.224-0.136,0.426-0.359,0.451C120.865,186.967,120.85,186.967,120.834,186.967L120.834,186.967z"/>
		</g>
		<g>
			<path fill="#60BF70" d="M122.577,187.44c-0.012,0-0.023-0.001-0.035-0.002c-0.104-0.006-0.207-0.009-0.312-0.013
				c-0.511-0.015-1.089-0.032-1.685-0.419c-0.247-0.16-0.317-0.489-0.157-0.735c0.159-0.245,0.489-0.315,0.735-0.157
				c0.347,0.225,0.696,0.235,1.139,0.249c0.116,0.003,0.231,0.007,0.348,0.015c0.293,0.019,0.516,0.271,0.496,0.564
				C123.089,187.223,122.855,187.44,122.577,187.44L122.577,187.44z"/>
		</g>
		<g>
			<path fill="#60BF70" d="M123.389,176.511c-0.205,0-0.379-0.157-0.396-0.365c-0.18-2.252-0.38-4.489-0.578-6.716
				c-0.721-8.066-1.4-15.687-1.164-23.614c0.007-0.219,0.181-0.386,0.408-0.385c0.219,0.007,0.392,0.189,0.385,0.408
				c-0.235,7.881,0.442,15.478,1.161,23.521c0.198,2.229,0.398,4.468,0.579,6.724c0.018,0.218-0.146,0.409-0.364,0.427
				C123.409,176.511,123.399,176.511,123.389,176.511L123.389,176.511z"/>
		</g>
		<g>
			<path fill="#60BF70" d="M118.225,135.753c-0.004,0-0.008,0-0.012,0c-0.204-0.006-0.364-0.177-0.357-0.381
				c0.042-1.306,0.02-2.646-0.003-3.943c-0.036-2.15-0.073-4.374,0.179-6.533c0.024-0.202,0.199-0.348,0.41-0.324
				c0.202,0.023,0.348,0.207,0.324,0.41c-0.246,2.11-0.209,4.309-0.174,6.435c0.022,1.306,0.045,2.656,0.002,3.979
				C118.588,135.596,118.424,135.753,118.225,135.753L118.225,135.753z"/>
		</g>
		<g>
			<path fill="#60BF70" d="M127.561,146.047c-1.004,0-1.987-0.201-2.86-0.83c-0.24-0.173-0.295-0.508-0.122-0.747
				c0.174-0.24,0.511-0.295,0.747-0.122c1.327,0.957,3.122,0.621,4.858,0.299c0.7-0.13,1.424-0.265,2.104-0.311
				c0.294-0.025,0.55,0.203,0.57,0.498c0.02,0.295-0.203,0.551-0.498,0.57c-0.618,0.042-1.279,0.165-1.979,0.295
				C129.473,145.867,128.508,146.047,127.561,146.047L127.561,146.047z"/>
		</g>
		<g>
			<path fill="#60BF70" d="M31.172,151.969c-0.275,0-0.525-0.188-0.593-0.467c-0.08-0.328,0.122-0.658,0.45-0.737
				c4.762-1.151,9.715-1.336,14.504-1.515c1.533-0.058,3.066-0.114,4.597-0.202c0.356-0.021,0.625,0.238,0.645,0.574
				c0.02,0.337-0.238,0.625-0.574,0.645c-1.539,0.088-3.081,0.146-4.621,0.203c-4.729,0.177-9.62,0.359-14.263,1.482
				C31.267,151.964,31.219,151.969,31.172,151.969L31.172,151.969z"/>
		</g>
		<g>
			<path fill="#60BF70" d="M50.164,150.194c-0.1,0-0.201-0.028-0.291-0.086c-0.249-0.161-0.319-0.493-0.159-0.741
				c1-1.546,1.165-2.854,0.49-3.89c-1.829-2.803-9.071-3.331-12.279-2.81c-0.289,0.041-0.566-0.151-0.614-0.444
				c-0.047-0.292,0.151-0.566,0.444-0.614c2.983-0.48,11.062-0.219,13.346,3.283c0.928,1.421,0.764,3.123-0.488,5.057
				C50.511,150.107,50.34,150.194,50.164,150.194L50.164,150.194z"/>
		</g>
		<g>
			<path fill="#60BF70" d="M128.493,176.558c-0.136,0-0.273-0.034-0.399-0.108c-0.377-0.222-0.503-0.706-0.282-1.083
				c0.445-0.759,1.068-1.316,1.671-1.856c0.751-0.673,1.4-1.254,1.608-2.108c0.104-0.424,0.533-0.686,0.956-0.581
				c0.424,0.103,0.685,0.531,0.581,0.955c-0.323,1.332-1.262,2.172-2.09,2.913c-0.535,0.48-1.042,0.934-1.361,1.479
				C129.03,176.418,128.765,176.558,128.493,176.558L128.493,176.558z"/>
		</g>
		<g>
			<path fill="#60BF70" d="M31.714,160.758c-0.225,0-0.44-0.131-0.537-0.35c-0.131-0.296,0.003-0.643,0.299-0.773
				c5.197-2.299,10.897-2.43,16.409-2.557c1.496-0.034,3.042-0.069,4.536-0.149c0.332,0.005,0.6,0.231,0.617,0.555
				c0.017,0.323-0.231,0.6-0.555,0.617c-1.511,0.08-3.067,0.116-4.571,0.15c-5.397,0.124-10.978,0.252-15.961,2.456
				C31.874,160.741,31.793,160.758,31.714,160.758L31.714,160.758z"/>
		</g>
		<g>
			<path fill="#60BF70" d="M33.802,168.987c-0.216,0-0.426-0.113-0.54-0.314c-0.167-0.298-0.062-0.675,0.235-0.843
				c4.251-2.396,9.115-2.579,13.819-2.757c1.27-0.049,2.583-0.099,3.846-0.192c0.343-0.02,0.638,0.23,0.663,0.571
				c0.025,0.341-0.23,0.638-0.571,0.663c-1.286,0.095-2.61,0.146-3.891,0.193c-4.556,0.173-9.268,0.352-13.258,2.6
				C34.01,168.961,33.906,168.987,33.802,168.987L33.802,168.987z"/>
		</g>
	</g>
</g>
</svg>
